<mxfile host="app.diagrams.net" agent="Mozilla/5.0 (Macintosh; Intel Mac OS X 10_15_7) AppleWebKit/537.36 (KHTML, like Gecko) Chrome/129.0.0.0 Safari/537.36" version="24.7.7">
  <diagram name="Page-1" id="YqL9_GrKlT5RoXsBxwoT">
    <mxGraphModel dx="1426" dy="1134" grid="0" gridSize="10" guides="1" tooltips="1" connect="1" arrows="1" fold="1" page="0" pageScale="1" pageWidth="827" pageHeight="1169" math="0" shadow="0">
      <root>
        <mxCell id="0" />
        <mxCell id="1" parent="0" />
        <mxCell id="b3t9D8StndKF1bq6ZtnN-1" value="Shows" style="swimlane;childLayout=stackLayout;horizontal=1;startSize=50;horizontalStack=0;rounded=1;fontSize=14;fontStyle=0;strokeWidth=2;resizeParent=0;resizeLast=1;shadow=0;dashed=0;align=center;arcSize=4;whiteSpace=wrap;html=1;" vertex="1" parent="1">
          <mxGeometry x="-382" y="-124" width="160" height="172" as="geometry" />
        </mxCell>
        <mxCell id="b3t9D8StndKF1bq6ZtnN-2" value="&lt;u&gt;ShowName&lt;/u&gt;&lt;br&gt;&lt;u&gt;Year&lt;/u&gt;&lt;br&gt;Producer&lt;div&gt;Budget&lt;/div&gt;&lt;div&gt;Box Office&lt;/div&gt;&lt;div&gt;Audience Rating&lt;/div&gt;&lt;div&gt;Academy Rating&lt;br&gt;&lt;div&gt;&lt;br&gt;&lt;/div&gt;&lt;/div&gt;" style="align=left;strokeColor=none;fillColor=none;spacingLeft=4;fontSize=12;verticalAlign=top;resizable=0;rotatable=0;part=1;html=1;" vertex="1" parent="b3t9D8StndKF1bq6ZtnN-1">
          <mxGeometry y="50" width="160" height="122" as="geometry" />
        </mxCell>
        <mxCell id="b3t9D8StndKF1bq6ZtnN-3" value="Award" style="swimlane;childLayout=stackLayout;horizontal=1;startSize=50;horizontalStack=0;rounded=1;fontSize=14;fontStyle=0;strokeWidth=2;resizeParent=0;resizeLast=1;shadow=0;dashed=0;align=center;arcSize=4;whiteSpace=wrap;html=1;" vertex="1" parent="1">
          <mxGeometry x="168" y="-94" width="160" height="112" as="geometry" />
        </mxCell>
        <mxCell id="b3t9D8StndKF1bq6ZtnN-4" value="&lt;u&gt;AwardName&lt;/u&gt;&lt;br&gt;&lt;div&gt;Year Created&lt;/div&gt;&lt;div&gt;Award Grant&lt;/div&gt;" style="align=left;strokeColor=none;fillColor=none;spacingLeft=4;fontSize=12;verticalAlign=top;resizable=0;rotatable=0;part=1;html=1;" vertex="1" parent="b3t9D8StndKF1bq6ZtnN-3">
          <mxGeometry y="50" width="160" height="62" as="geometry" />
        </mxCell>
        <mxCell id="b3t9D8StndKF1bq6ZtnN-6" value="nominated" style="shape=rhombus;perimeter=rhombusPerimeter;whiteSpace=wrap;html=1;align=center;" vertex="1" parent="1">
          <mxGeometry x="-70" y="-124" width="120" height="60" as="geometry" />
        </mxCell>
        <mxCell id="b3t9D8StndKF1bq6ZtnN-7" value="won" style="shape=rhombus;perimeter=rhombusPerimeter;whiteSpace=wrap;html=1;align=center;" vertex="1" parent="1">
          <mxGeometry x="-70" y="-6" width="120" height="60" as="geometry" />
        </mxCell>
      </root>
    </mxGraphModel>
  </diagram>
</mxfile>
